Alegreya Sans SC-Bold.ufo
<glyph name="exclam" format="1">
  <advance width="264"/>
  <unicode hex="0021"/>
  <outline>
    <contour>
      <point x="88" y="659" type="line"/>
      <point x="76" y="644" type="line"/>
      <point x="84" y="240" type="line"/>
      <point x="97" y="227" type="line"/>
      <point x="173" y="237" type="line"/>
      <point x="209" y="650" type="line"/>
      <point x="193" y="666" type="line"/>
    </contour>
    <component base="period" xOffset="7"/>
  </outline>
</glyph>
<glyph name="quotedbl" format="1">
  <advance width="354"/>
  <unicode hex="0022"/>
  <outline>
    <contour>
      <point x="55" y="635" type="line"/>
      <point x="57" y="413" type="line"/>
      <point x="68" y="404" type="line"/>
      <point x="130" y="413" type="line"/>
      <point x="165" y="633" type="line"/>
      <point x="157" y="642" type="line"/>
    </contour>
    <contour>
      <point x="205" y="635" type="line"/>
      <point x="207" y="413" type="line"/>
      <point x="218" y="404" type="line"/>
      <point x="280" y="413" type="line"/>
      <point x="315" y="633" type="line"/>
      <point x="307" y="642" type="line"/>
    </contour>
  </outline>
</glyph>
<glyph name="period" format="1">
  <advance width="229"/>
  <unicode hex="002E"/>
  <outline>
    <contour>
      <point x="72" y="135"/>
      <point x="44" y="106"/>
      <point x="44" y="62" type="curve" smooth="yes"/>
      <point x="44" y="18"/>
      <point x="68" y="-7"/>
      <point x="111" y="-7" type="curve" smooth="yes"/>
      <point x="155" y="-7"/>
      <point x="183" y="22"/>
      <point x="183" y="67" type="curve" smooth="yes"/>
      <point x="183" y="110"/>
      <point x="159" y="135"/>
      <point x="117" y="135" type="curve" smooth="yes"/>
    </contour>
  </outline>
</glyph>
<glyph name="zero" format="1">
  <advance width="521"/>
  <unicode hex="0030"/>
  <outline>
    <contour>
      <point x="123" y="513"/>
      <point x="39" y="414"/>
      <point x="39" y="242" type="curve" smooth="yes"/>
      <point x="39" y="83"/>
      <point x="117" y="-9"/>
      <point x="253" y="-9" type="curve" smooth="yes"/>
      <point x="400" y="-9"/>
      <point x="483" y="89"/>
      <point x="483" y="260" type="curve" smooth="yes"/>
      <point x="483" y="422"/>
      <point x="405" y="513"/>
      <point x="270" y="513" type="curve" smooth="yes"/>
    </contour>
    <contour>
      <point x="340" y="390"/>
      <point x="380" y="344"/>
      <point x="380" y="245" type="curve" smooth="yes"/>
      <point x="380" y="152"/>
      <point x="341" y="108"/>
      <point x="260" y="108" type="curve" smooth="yes"/>
      <point x="180" y="108"/>
      <point x="142" y="154"/>
      <point x="142" y="251" type="curve" smooth="yes"/>
      <point x="142" y="347"/>
      <point x="180" y="390"/>
      <point x="259" y="390" type="curve" smooth="yes"/>
    </contour>
  </outline>
</glyph>
<glyph name="two" format="1">
  <advance width="471"/>
  <unicode hex="0032"/>
  <outline>
    <contour>
      <point x="174" y="511"/>
      <point x="105" y="485"/>
      <point x="41" y="442" type="curve"/>
      <point x="64" y="339" type="line"/>
      <point x="78" y="339" type="line"/>
      <point x="118" y="375"/>
      <point x="168" y="398"/>
      <point x="210" y="398" type="curve" smooth="yes"/>
      <point x="248" y="398"/>
      <point x="267" y="380"/>
      <point x="267" y="354" type="curve" smooth="yes"/>
      <point x="267" y="321"/>
      <point x="234" y="278"/>
      <point x="173" y="217" type="curve" smooth="yes"/>
      <point x="39" y="84" type="line"/>
      <point x="39" y="3" type="line"/>
      <point x="46" y="-2" type="line"/>
      <point x="82" y="0" type="line"/>
      <point x="309" y="0" type="line"/>
      <point x="431" y="-6" type="line"/>
      <point x="447" y="101" type="line"/>
      <point x="439" y="110" type="line"/>
      <point x="349" y="102" type="line"/>
      <point x="214" y="102" type="line" smooth="yes"/>
      <point x="212" y="106" type="line"/>
      <point x="286" y="189" type="line" smooth="yes"/>
      <point x="366" y="275"/>
      <point x="399" y="336"/>
      <point x="399" y="389" type="curve" smooth="yes"/>
      <point x="399" y="466"/>
      <point x="331" y="511"/>
      <point x="241" y="511" type="curve" smooth="yes"/>
    </contour>
  </outline>
</glyph>
<glyph name="three" format="1">
  <advance width="431"/>
  <unicode hex="0033"/>
  <outline>
    <contour>
      <point x="141" y="513"/>
      <point x="79" y="493"/>
      <point x="23" y="454" type="curve"/>
      <point x="43" y="357" type="line"/>
      <point x="56" y="357" type="line"/>
      <point x="99" y="387"/>
      <point x="136" y="404"/>
      <point x="174" y="404" type="curve" smooth="yes"/>
      <point x="217" y="404"/>
      <point x="242" y="384"/>
      <point x="242" y="347" type="curve" smooth="yes"/>
      <point x="242" y="296"/>
      <point x="192" y="264"/>
      <point x="145" y="263" type="curve" smooth="yes"/>
      <point x="100" y="261" type="line"/>
      <point x="97" y="170" type="line"/>
      <point x="103" y="161" type="line"/>
      <point x="174" y="161" type="line"/>
      <point x="233" y="159"/>
      <point x="264" y="134"/>
      <point x="264" y="90" type="curve" smooth="yes"/>
      <point x="264" y="37"/>
      <point x="220" y="6"/>
      <point x="146" y="6" type="curve" smooth="yes"/>
      <point x="110" y="6"/>
      <point x="73" y="13"/>
      <point x="35" y="27" type="curve"/>
      <point x="26" y="18" type="line"/>
      <point x="33" y="-85" type="line"/>
      <point x="65" y="-91"/>
      <point x="106" y="-95"/>
      <point x="141" y="-95" type="curve" smooth="yes"/>
      <point x="291" y="-95"/>
      <point x="392" y="-19"/>
      <point x="392" y="93" type="curve" smooth="yes"/>
      <point x="392" y="161"/>
      <point x="355" y="205"/>
      <point x="283" y="226" type="curve"/>
      <point x="283" y="231" type="line"/>
      <point x="353" y="269"/>
      <point x="378" y="327"/>
      <point x="378" y="376" type="curve" smooth="yes"/>
      <point x="378" y="457"/>
      <point x="308" y="513"/>
      <point x="203" y="513" type="curve" smooth="yes"/>
    </contour>
  </outline>
</glyph>
<glyph name="eight" format="1">
  <advance width="493"/>
  <unicode hex="0038"/>
  <outline>
    <contour>
      <point x="140" y="595"/>
      <point x="61" y="533"/>
      <point x="61" y="430" type="curve" smooth="yes"/>
      <point x="61" y="356"/>
      <point x="104" y="317"/>
      <point x="151" y="291" type="curve"/>
      <point x="151" y="285" type="line"/>
      <point x="90" y="257"/>
      <point x="41" y="216"/>
      <point x="41" y="142" type="curve" smooth="yes"/>
      <point x="41" y="55"/>
      <point x="109" y="-9"/>
      <point x="233" y="-9" type="curve" smooth="yes"/>
      <point x="361" y="-9"/>
      <point x="447" y="57"/>
      <point x="447" y="166" type="curve" smooth="yes"/>
      <point x="447" y="244"/>
      <point x="395" y="280"/>
      <point x="342" y="306" type="curve"/>
      <point x="342" y="312" type="line"/>
      <point x="393" y="345"/>
      <point x="431" y="386"/>
      <point x="431" y="449" type="curve" smooth="yes"/>
      <point x="431" y="539"/>
      <point x="366" y="595"/>
      <point x="258" y="595" type="curve" smooth="yes"/>
    </contour>
    <contour>
      <point x="289" y="228"/>
      <point x="338" y="207"/>
      <point x="338" y="156" type="curve" smooth="yes"/>
      <point x="338" y="114"/>
      <point x="306" y="80"/>
      <point x="244" y="80" type="curve" smooth="yes"/>
      <point x="186" y="80"/>
      <point x="152" y="112"/>
      <point x="152" y="159" type="curve" smooth="yes"/>
      <point x="152" y="211"/>
      <point x="188" y="233"/>
      <point x="235" y="250" type="curve"/>
    </contour>
    <contour>
      <point x="297" y="503"/>
      <point x="326" y="477"/>
      <point x="326" y="434" type="curve" smooth="yes"/>
      <point x="326" y="389"/>
      <point x="295" y="365"/>
      <point x="258" y="345" type="curve"/>
      <point x="211" y="364"/>
      <point x="169" y="386"/>
      <point x="169" y="434" type="curve" smooth="yes"/>
      <point x="169" y="476"/>
      <point x="198" y="503"/>
      <point x="249" y="503" type="curve" smooth="yes"/>
    </contour>
  </outline>
</glyph>
<glyph name="at" format="1">
  <advance width="844"/>
  <unicode hex="0040"/>
  <outline>
    <contour>
      <point x="204" y="635"/>
      <point x="28" y="443"/>
      <point x="28" y="185" type="curve" smooth="yes"/>
      <point x="28" y="-65"/>
      <point x="203" y="-209"/>
      <point x="466" y="-210" type="curve"/>
      <point x="502" y="-148" type="line"/>
      <point x="497" y="-135" type="line"/>
      <point x="269" y="-135"/>
      <point x="117" y="-12"/>
      <point x="117" y="201" type="curve" smooth="yes"/>
      <point x="117" y="401"/>
      <point x="252" y="547"/>
      <point x="457" y="551" type="curve" smooth="yes"/>
      <point x="628" y="556"/>
      <point x="735" y="458"/>
      <point x="735" y="307" type="curve" smooth="yes"/>
      <point x="735" y="177"/>
      <point x="659" y="91"/>
      <point x="535" y="88" type="curve"/>
      <point x="446" y="-1" type="line"/>
      <point x="687" y="3"/>
      <point x="823" y="114"/>
      <point x="823" y="312" type="curve" smooth="yes"/>
      <point x="823" y="511"/>
      <point x="684" y="635"/>
      <point x="473" y="635" type="curve" smooth="yes"/>
    </contour>
    <contour>
      <point x="500" y="431" type="line"/>
      <point x="495" y="347" type="line"/>
      <point x="446" y="-1" type="line"/>
      <point x="565" y="27" type="line"/>
      <point x="568" y="112" type="line"/>
      <point x="616" y="458" type="line"/>
      <point x="606" y="464" type="line"/>
    </contour>
    <contour>
      <point x="394" y="213" type="move"/>
    </contour>
    <contour>
      <point x="293" y="424"/>
      <point x="218" y="279"/>
      <point x="218" y="153" type="curve" smooth="yes"/>
      <point x="218" y="74"/>
      <point x="245" y="21"/>
      <point x="319" y="-7" type="curve"/>
      <point x="337" y="-7" type="line"/>
      <point x="382" y="39"/>
      <point x="422" y="96"/>
      <point x="456" y="156" type="curve"/>
      <point x="476" y="156" type="line"/>
      <point x="501" y="349" type="line"/>
      <point x="435" y="188"/>
      <point x="374" y="110"/>
      <point x="352" y="110" type="curve" smooth="yes"/>
      <point x="339" y="110"/>
      <point x="326" y="130"/>
      <point x="326" y="195" type="curve" smooth="yes"/>
      <point x="326" y="297"/>
      <point x="364" y="371"/>
      <point x="431" y="371" type="curve"/>
      <point x="530" y="340" type="line"/>
      <point x="587" y="428" type="line"/>
      <point x="457" y="462" type="line"/>
      <point x="452" y="462" type="line"/>
    </contour>
  </outline>
</glyph>
<glyph name="D" format="1">
  <advance width="655"/>
  <unicode hex="0044"/>
  <outline>
    <contour>
      <point x="78" y="644" type="line"/>
      <point x="197" y="534" type="line"/>
      <point x="229" y="537"/>
      <point x="302" y="540"/>
      <point x="326" y="540" type="curve" smooth="yes"/>
      <point x="435" y="540"/>
      <point x="485" y="473"/>
      <point x="485" y="315" type="curve" smooth="yes"/>
      <point x="485" y="163"/>
      <point x="427" y="98"/>
      <point x="327" y="98" type="curve" smooth="yes"/>
      <point x="302" y="98"/>
      <point x="225" y="102"/>
      <point x="187" y="108" type="curve"/>
      <point x="78" y="0" type="line"/>
      <point x="144" y="-4"/>
      <point x="252" y="-7"/>
      <point x="303" y="-7" type="curve" smooth="yes"/>
      <point x="511" y="-7"/>
      <point x="626" y="118"/>
      <point x="626" y="346" type="curve" smooth="yes"/>
      <point x="626" y="541"/>
      <point x="524" y="648"/>
      <point x="337" y="648" type="curve"/>
    </contour>
    <contour>
      <point x="78" y="644" type="line"/>
      <point x="86" y="192" type="line"/>
      <point x="78" y="0" type="line"/>
      <point x="215" y="0" type="line"/>
      <point x="209" y="204" type="line"/>
      <point x="216" y="644" type="line"/>
    </contour>
    <contour>
      <point x="330" y="322" type="move" name="center"/>
    </contour>
    <contour>
      <point x="321" y="644" type="move" name="top"/>
    </contour>
  </outline>
</glyph>
<glyph name="H" format="1">
  <advance width="696"/>
  <unicode hex="0048"/>
  <outline>
    <contour>
      <point x="479" y="644" type="line"/>
      <point x="487" y="192" type="line"/>
      <point x="479" y="0" type="line"/>
      <point x="616" y="0" type="line"/>
      <point x="610" y="204" type="line"/>
      <point x="617" y="644" type="line"/>
    </contour>
    <contour>
      <point x="78" y="644" type="line"/>
      <point x="86" y="192" type="line"/>
      <point x="78" y="0" type="line"/>
      <point x="215" y="0" type="line"/>
      <point x="209" y="204" type="line"/>
      <point x="216" y="644" type="line"/>
    </contour>
    <contour>
      <point x="193" y="266" type="line"/>
      <point x="339" y="269" type="line"/>
      <point x="496" y="267" type="line"/>
      <point x="496" y="379" type="line"/>
      <point x="348" y="376" type="line"/>
      <point x="193" y="379" type="line"/>
    </contour>
    <contour>
      <point x="346" y="322" type="move" name="center"/>
    </contour>
    <contour>
      <point x="346" y="644" type="move" name="top"/>
    </contour>
  </outline>
</glyph>
<glyph name="S" format="1">
  <advance width="498"/>
  <unicode hex="0053"/>
  <outline>
    <contour>
      <point x="144" y="652"/>
      <point x="48" y="566"/>
      <point x="48" y="453" type="curve" smooth="yes"/>
      <point x="48" y="263"/>
      <point x="330" y="277"/>
      <point x="330" y="167" type="curve" smooth="yes"/>
      <point x="330" y="130"/>
      <point x="299" y="94"/>
      <point x="237" y="94" type="curve" smooth="yes"/>
      <point x="191" y="94"/>
      <point x="121" y="117"/>
      <point x="65" y="166" type="curve"/>
      <point x="50" y="158" type="line"/>
      <point x="31" y="32" type="line"/>
      <point x="94" y="5"/>
      <point x="161" y="-9"/>
      <point x="222" y="-9" type="curve" smooth="yes"/>
      <point x="369" y="-9"/>
      <point x="464" y="80"/>
      <point x="464" y="190" type="curve" smooth="yes"/>
      <point x="464" y="379"/>
      <point x="181" y="371"/>
      <point x="181" y="475" type="curve" smooth="yes"/>
      <point x="181" y="510"/>
      <point x="213" y="546"/>
      <point x="269" y="546" type="curve" smooth="yes"/>
      <point x="308" y="546"/>
      <point x="360" y="527"/>
      <point x="406" y="494" type="curve"/>
      <point x="426" y="502" type="line"/>
      <point x="448" y="619" type="line"/>
      <point x="387" y="644"/>
      <point x="330" y="652"/>
      <point x="285" y="652" type="curve" smooth="yes"/>
    </contour>
    <contour>
      <point x="241" y="0" type="move" name="bottom"/>
    </contour>
    <contour>
      <point x="260" y="644" type="move" name="top"/>
    </contour>
  </outline>
</glyph>
<glyph name="T" format="1">
  <advance width="503"/>
  <unicode hex="0054"/>
  <outline>
    <contour>
      <point x="186" y="629" type="line"/>
      <point x="193" y="192" type="line"/>
      <point x="185" y="0" type="line"/>
      <point x="321" y="0" type="line"/>
      <point x="315" y="204" type="line"/>
      <point x="322" y="629" type="line"/>
    </contour>
    <contour>
      <point x="24" y="644" type="line"/>
      <point x="15" y="543" type="line"/>
      <point x="24" y="532" type="line"/>
      <point x="146" y="538" type="line"/>
      <point x="359" y="538" type="line"/>
      <point x="481" y="532" type="line"/>
      <point x="489" y="633" type="line"/>
      <point x="481" y="644" type="line"/>
    </contour>
    <contour>
      <point x="250" y="0" type="move" name="bottom"/>
    </contour>
    <contour>
      <point x="254" y="322" type="move" name="center"/>
    </contour>
    <contour>
      <point x="254" y="644" type="move" name="top"/>
    </contour>
  </outline>
</glyph>
<glyph name="U" format="1">
  <advance width="638"/>
  <unicode hex="0055"/>
  <outline>
    <contour>
      <point x="440" y="644" type="line"/>
      <point x="446" y="238" type="line" smooth="yes"/>
      <point x="447" y="146"/>
      <point x="404" y="102"/>
      <point x="318" y="102" type="curve" smooth="yes"/>
      <point x="231" y="102"/>
      <point x="189" y="148"/>
      <point x="190" y="245" type="curve" smooth="yes"/>
      <point x="197" y="644" type="line"/>
      <point x="61" y="644" type="line"/>
      <point x="64" y="320" type="line"/>
      <point x="62" y="227" type="line" smooth="yes"/>
      <point x="59" y="75"/>
      <point x="148" y="-9"/>
      <point x="310" y="-9" type="curve" smooth="yes"/>
      <point x="479" y="-9"/>
      <point x="574" y="78"/>
      <point x="572" y="232" type="curve" smooth="yes"/>
      <point x="573" y="317" type="line"/>
      <point x="577" y="644" type="line"/>
    </contour>
    <contour>
      <point x="549" y="10" type="move" name="ogonek"/>
    </contour>
    <contour>
      <point x="321" y="644" type="move" name="top"/>
    </contour>
  </outline>
</glyph>
<glyph name="W" format="1">
  <advance width="903"/>
  <unicode hex="0057"/>
  <outline>
    <contour>
      <point x="772" y="644" type="line"/>
      <point x="756" y="556" type="line"/>
      <point x="626" y="140" type="line"/>
      <point x="617" y="140" type="line"/>
      <point x="501" y="551" type="line"/>
      <point x="486" y="644" type="line"/>
      <point x="348" y="644" type="line"/>
      <point x="393" y="487" type="line"/>
      <point x="284" y="140" type="line"/>
      <point x="275" y="140" type="line"/>
      <point x="162" y="565" type="line"/>
      <point x="151" y="644" type="line"/>
      <point x="19" y="644" type="line"/>
      <point x="199" y="0" type="line"/>
      <point x="342" y="0" type="line"/>
      <point x="439" y="308" type="line"/>
      <point x="448" y="308" type="line"/>
      <point x="544" y="0" type="line"/>
      <point x="686" y="0" type="line"/>
      <point x="898" y="644" type="line"/>
    </contour>
    <contour>
      <point x="445" y="644" type="move" name="top"/>
    </contour>
  </outline>
</glyph>
<glyph name="Z" format="1">
  <advance width="547"/>
  <unicode hex="005A"/>
  <outline>
    <contour>
      <point x="449" y="644" type="line"/>
      <point x="175" y="644" type="line"/>
      <point x="45" y="645" type="line"/>
      <point x="34" y="538" type="line"/>
      <point x="40" y="531" type="line"/>
      <point x="149" y="540" type="line"/>
      <point x="353" y="540" type="line"/>
      <point x="30" y="93" type="line"/>
      <point x="30" y="-4" type="line"/>
      <point x="107" y="0" type="line"/>
      <point x="364" y="0" type="line"/>
      <point x="510" y="-3" type="line"/>
      <point x="520" y="104" type="line"/>
      <point x="516" y="112" type="line"/>
      <point x="407" y="103" type="line"/>
      <point x="190" y="103" type="line"/>
      <point x="511" y="546" type="line"/>
      <point x="511" y="645" type="line"/>
    </contour>
    <contour>
      <point x="277" y="644" type="move" name="top"/>
    </contour>
  </outline>
</glyph>
<glyph name="c" format="1">
  <advance width="454"/>
  <unicode hex="0063"/>
  <outline>
    <contour>
      <point x="128" y="512"/>
      <point x="33" y="416"/>
      <point x="33" y="248" type="curve" smooth="yes"/>
      <point x="33" y="83"/>
      <point x="119" y="-8"/>
      <point x="284" y="-8" type="curve" smooth="yes"/>
      <point x="330" y="-8"/>
      <point x="371" y="-1"/>
      <point x="413" y="16" type="curve"/>
      <point x="424" y="121" type="line"/>
      <point x="412" y="127" type="line"/>
      <point x="378" y="109"/>
      <point x="332" y="97"/>
      <point x="292" y="97" type="curve" smooth="yes"/>
      <point x="209" y="97"/>
      <point x="166" y="151"/>
      <point x="166" y="262" type="curve" smooth="yes"/>
      <point x="166" y="365"/>
      <point x="206" y="409"/>
      <point x="286" y="409" type="curve" smooth="yes"/>
      <point x="328" y="409"/>
      <point x="371" y="396"/>
      <point x="402" y="375" type="curve"/>
      <point x="413" y="380" type="line"/>
      <point x="435" y="486" type="line"/>
      <point x="395" y="502"/>
      <point x="347" y="512"/>
      <point x="294" y="512" type="curve" smooth="yes"/>
    </contour>
    <contour>
      <point x="269" y="0" type="move" name="bottom"/>
    </contour>
    <contour>
      <point x="271" y="505" type="move" name="top"/>
    </contour>
  </outline>
</glyph>
<glyph name="h" format="1">
  <advance width="604"/>
  <unicode hex="0068"/>
  <outline>
    <contour>
      <point x="405" y="505" type="line"/>
      <point x="411" y="150" type="line"/>
      <point x="405" y="0" type="line"/>
      <point x="531" y="0" type="line"/>
      <point x="526" y="162" type="line"/>
      <point x="533" y="505" type="line"/>
    </contour>
    <contour>
      <point x="73" y="505" type="line"/>
      <point x="79" y="150" type="line"/>
      <point x="73" y="0" type="line"/>
      <point x="199" y="0" type="line"/>
      <point x="194" y="162" type="line"/>
      <point x="201" y="505" type="line"/>
    </contour>
    <contour>
      <point x="181" y="198" type="line"/>
      <point x="297" y="200" type="line"/>
      <point x="420" y="199" type="line"/>
      <point x="420" y="304" type="line"/>
      <point x="304" y="303" type="line"/>
      <point x="181" y="305" type="line"/>
    </contour>
    <contour>
      <point x="287" y="253" type="move" name="center"/>
    </contour>
    <contour>
      <point x="304" y="505" type="move" name="top"/>
    </contour>
  </outline>
</glyph>
<glyph name="i" format="1">
  <advance width="279"/>
  <unicode hex="0069"/>
  <outline>
    <contour>
      <point x="73" y="505" type="line"/>
      <point x="79" y="150" type="line"/>
      <point x="73" y="0" type="line"/>
      <point x="199" y="0" type="line"/>
      <point x="194" y="162" type="line"/>
      <point x="201" y="505" type="line"/>
    </contour>
    <contour>
      <point x="216" y="8" type="move" name="ogonek"/>
    </contour>
    <contour>
      <point x="141" y="505" type="move" name="top"/>
    </contour>
  </outline>
</glyph>
<glyph name="k" format="1">
  <advance width="520"/>
  <unicode hex="006B"/>
  <outline>
    <contour>
      <point x="365" y="505" type="line"/>
      <point x="334" y="454" type="line"/>
      <point x="190" y="269" type="line"/>
      <point x="190" y="260" type="line"/>
      <point x="249" y="170"/>
      <point x="311" y="83"/>
      <point x="375" y="-2" type="curve"/>
      <point x="391" y="-9" type="line"/>
      <point x="432" y="-6"/>
      <point x="474" y="2"/>
      <point x="515" y="12" type="curve"/>
      <point x="517" y="27" type="line"/>
      <point x="448" y="104"/>
      <point x="380" y="185"/>
      <point x="319" y="267" type="curve"/>
      <point x="503" y="506" type="line"/>
    </contour>
    <contour>
      <point x="73" y="505" type="line"/>
      <point x="79" y="150" type="line"/>
      <point x="73" y="0" type="line"/>
      <point x="199" y="0" type="line"/>
      <point x="194" y="162" type="line"/>
      <point x="201" y="505" type="line"/>
    </contour>
    <contour>
      <point x="249" y="0" type="move" name="bottom"/>
    </contour>
    <contour>
      <point x="245" y="505" type="move" name="top"/>
    </contour>
  </outline>
</glyph>
<glyph name="m" format="1">
  <advance width="686"/>
  <unicode hex="006D"/>
  <outline>
    <contour>
      <point x="448" y="505" type="line"/>
      <point x="426" y="430" type="line"/>
      <point x="347" y="217" type="line"/>
      <point x="339" y="217" type="line"/>
      <point x="265" y="431" type="line"/>
      <point x="245" y="505" type="line"/>
      <point x="97" y="505" type="line"/>
      <point x="44" y="0" type="line"/>
      <point x="151" y="0" type="line"/>
      <point x="162" y="165" type="line"/>
      <point x="179" y="318" type="line"/>
      <point x="188" y="318" type="line"/>
      <point x="287" y="50" type="line"/>
      <point x="384" y="50" type="line"/>
      <point x="495" y="318" type="line"/>
      <point x="503" y="318" type="line"/>
      <point x="520" y="153" type="line"/>
      <point x="527" y="0" type="line"/>
      <point x="639" y="0" type="line"/>
      <point x="592" y="505" type="line"/>
    </contour>
  </outline>
</glyph>
<glyph name="n" format="1">
  <advance width="604"/>
  <unicode hex="006E"/>
  <outline>
    <contour>
      <point x="417" y="500" type="line"/>
      <point x="420" y="192" type="line"/>
      <point x="412" y="192" type="line"/>
      <point x="209" y="505" type="line"/>
      <point x="74" y="505" type="line"/>
      <point x="79" y="148" type="line"/>
      <point x="73" y="0" type="line"/>
      <point x="187" y="0" type="line"/>
      <point x="183" y="177" type="line"/>
      <point x="184" y="313" type="line"/>
      <point x="191" y="313" type="line"/>
      <point x="393" y="0" type="line"/>
      <point x="530" y="0" type="line"/>
      <point x="526" y="160" type="line"/>
      <point x="532" y="508" type="line"/>
    </contour>
    <contour>
      <point x="300" y="0" type="move" name="bottom"/>
    </contour>
    <contour>
      <point x="301" y="505" type="move" name="top"/>
    </contour>
  </outline>
</glyph>
<glyph name="p" format="1">
  <advance width="494"/>
  <unicode hex="0070"/>
  <outline>
    <contour>
      <point x="73" y="505" type="line"/>
      <point x="146" y="410" type="line"/>
      <point x="249" y="415" type="line"/>
      <point x="308" y="412"/>
      <point x="337" y="389"/>
      <point x="337" y="337" type="curve" smooth="yes"/>
      <point x="337" y="287"/>
      <point x="314" y="260"/>
      <point x="268" y="245" type="curve"/>
      <point x="118" y="252" type="line"/>
      <point x="118" y="155" type="line"/>
      <point x="245" y="155" type="line"/>
      <point x="381" y="155"/>
      <point x="469" y="231"/>
      <point x="469" y="349" type="curve" smooth="yes"/>
      <point x="469" y="450"/>
      <point x="405" y="506"/>
      <point x="291" y="506" type="curve"/>
    </contour>
    <contour>
      <point x="73" y="505" type="line"/>
      <point x="79" y="150" type="line"/>
      <point x="73" y="0" type="line"/>
      <point x="199" y="0" type="line"/>
      <point x="194" y="162" type="line"/>
      <point x="201" y="505" type="line"/>
    </contour>
  </outline>
</glyph>
<glyph name="s" format="1">
  <advance width="445"/>
  <unicode hex="0073"/>
  <outline>
    <contour>
      <point x="126" y="512"/>
      <point x="52" y="441"/>
      <point x="52" y="351" type="curve" smooth="yes"/>
      <point x="52" y="193"/>
      <point x="278" y="209"/>
      <point x="278" y="132" type="curve" smooth="yes"/>
      <point x="278" y="105"/>
      <point x="254" y="83"/>
      <point x="216" y="83" type="curve" smooth="yes"/>
      <point x="175" y="83"/>
      <point x="114" y="107"/>
      <point x="68" y="149" type="curve"/>
      <point x="55" y="140" type="line"/>
      <point x="38" y="22" type="line"/>
      <point x="95" y="0"/>
      <point x="154" y="-9"/>
      <point x="200" y="-9" type="curve" smooth="yes"/>
      <point x="340" y="-9"/>
      <point x="402" y="73"/>
      <point x="402" y="155" type="curve" smooth="yes"/>
      <point x="402" y="311"/>
      <point x="176" y="296"/>
      <point x="176" y="372" type="curve" smooth="yes"/>
      <point x="176" y="395"/>
      <point x="197" y="418"/>
      <point x="236" y="418" type="curve" smooth="yes"/>
      <point x="268" y="418"/>
      <point x="310" y="402"/>
      <point x="353" y="370" type="curve"/>
      <point x="372" y="375" type="line"/>
      <point x="391" y="487" type="line"/>
      <point x="349" y="503"/>
      <point x="299" y="512"/>
      <point x="252" y="512" type="curve" smooth="yes"/>
    </contour>
    <contour>
      <point x="204" y="0" type="move" name="bottom"/>
    </contour>
    <contour>
      <point x="230" y="505" type="move" name="top"/>
    </contour>
  </outline>
</glyph>
<glyph name="t" format="1">
  <advance width="446"/>
  <unicode hex="0074"/>
  <outline>
    <contour>
      <point x="163" y="490" type="line"/>
      <point x="167" y="150" type="line"/>
      <point x="161" y="0" type="line"/>
      <point x="287" y="0" type="line"/>
      <point x="282" y="162" type="line"/>
      <point x="287" y="490" type="line"/>
    </contour>
    <contour>
      <point x="31" y="505" type="line"/>
      <point x="23" y="409" type="line"/>
      <point x="31" y="399" type="line"/>
      <point x="135" y="406" type="line"/>
      <point x="314" y="406" type="line"/>
      <point x="416" y="399" type="line"/>
      <point x="423" y="495" type="line"/>
      <point x="417" y="505" type="line"/>
    </contour>
    <contour>
      <point x="222" y="0" type="move" name="bottom"/>
    </contour>
    <contour>
      <point x="210" y="253" type="move" name="center"/>
    </contour>
    <contour>
      <point x="214" y="505" type="move" name="top"/>
    </contour>
  </outline>
</glyph>
<glyph name="u" format="1">
  <advance width="557"/>
  <unicode hex="0075"/>
  <outline>
    <contour>
      <point x="370" y="505" type="line"/>
      <point x="375" y="189" type="line" smooth="yes"/>
      <point x="376" y="124"/>
      <point x="344" y="94"/>
      <point x="277" y="94" type="curve" smooth="yes"/>
      <point x="209" y="94"/>
      <point x="177" y="124"/>
      <point x="178" y="189" type="curve" smooth="yes"/>
      <point x="185" y="505" type="line"/>
      <point x="59" y="505" type="line"/>
      <point x="62" y="250" type="line"/>
      <point x="60" y="171" type="line" smooth="yes"/>
      <point x="57" y="56"/>
      <point x="133" y="-8"/>
      <point x="271" y="-8" type="curve" smooth="yes"/>
      <point x="413" y="-8"/>
      <point x="494" y="56"/>
      <point x="493" y="171" type="curve" smooth="yes"/>
      <point x="493" y="248" type="line"/>
      <point x="498" y="505" type="line"/>
    </contour>
    <contour>
      <point x="472" y="8" type="move" name="ogonek"/>
    </contour>
    <contour>
      <point x="280" y="505" type="move" name="top"/>
    </contour>
  </outline>
</glyph>
<glyph name="w" format="1">
  <advance width="774"/>
  <unicode hex="0077"/>
  <outline>
    <contour>
      <point x="643" y="505" type="line"/>
      <point x="629" y="428" type="line"/>
      <point x="534" y="131" type="line"/>
      <point x="525" y="131" type="line"/>
      <point x="441" y="423" type="line"/>
      <point x="429" y="505" type="line"/>
      <point x="299" y="505" type="line"/>
      <point x="333" y="385" type="line"/>
      <point x="251" y="131" type="line"/>
      <point x="243" y="131" type="line"/>
      <point x="161" y="435" type="line"/>
      <point x="152" y="505" type="line"/>
      <point x="27" y="505" type="line"/>
      <point x="169" y="0" type="line"/>
      <point x="305" y="0" type="line"/>
      <point x="377" y="216" type="line"/>
      <point x="385" y="216" type="line"/>
      <point x="455" y="0" type="line"/>
      <point x="591" y="0" type="line"/>
      <point x="762" y="505" type="line"/>
    </contour>
    <contour>
      <point x="369" y="505" type="move" name="top"/>
    </contour>
  </outline>
</glyph>
<glyph name="x" format="1">
  <advance width="536"/>
  <unicode hex="0078"/>
  <outline>
    <contour>
      <point x="376" y="505" type="line"/>
      <point x="352" y="455" type="line"/>
      <point x="273" y="343" type="line"/>
      <point x="198" y="449" type="line"/>
      <point x="172" y="505" type="line"/>
      <point x="20" y="505" type="line"/>
      <point x="190" y="247" type="line"/>
      <point x="21" y="0" type="line"/>
      <point x="150" y="0" type="line"/>
      <point x="174" y="48" type="line"/>
      <point x="263" y="167" type="line"/>
      <point x="342" y="55" type="line"/>
      <point x="368" y="0" type="line"/>
      <point x="518" y="0" type="line"/>
      <point x="348" y="266" type="line"/>
      <point x="508" y="505" type="line"/>
    </contour>
  </outline>
</glyph>
<glyph name="y" format="1">
  <advance width="497"/>
  <unicode hex="0079"/>
  <outline>
    <contour>
      <point x="359" y="505" type="line"/>
      <point x="342" y="463" type="line"/>
      <point x="249" y="291" type="line"/>
      <point x="241" y="291" type="line"/>
      <point x="157" y="468" type="line"/>
      <point x="145" y="505" type="line"/>
      <point x="12" y="505" type="line"/>
      <point x="218" y="91" type="line"/>
      <point x="259" y="91" type="line"/>
      <point x="489" y="505" type="line"/>
    </contour>
    <contour>
      <point x="181" y="219" type="line"/>
      <point x="184" y="137" type="line"/>
      <point x="178" y="0" type="line"/>
      <point x="304" y="0" type="line"/>
      <point x="298" y="137" type="line"/>
      <point x="302" y="219" type="line"/>
    </contour>
    <contour>
      <point x="254" y="505" type="move" name="top"/>
    </contour>
  </outline>
</glyph>
<glyph name="cent" format="1">
  <advance width="383"/>
  <unicode hex="00A2"/>
  <outline>
    <contour>
      <point x="179" y="87" type="line"/>
      <point x="167" y="-113" type="line" smooth="yes"/>
      <point x="178" y="-124" type="line" smooth="yes"/>
      <point x="263" y="-124" type="line" smooth="yes"/>
      <point x="276" y="87" type="line"/>
    </contour>
    <contour>
      <point x="215" y="657" type="line" smooth="yes"/>
      <point x="203" y="455" type="line"/>
      <point x="300" y="455" type="line"/>
      <point x="312" y="645" type="line" smooth="yes"/>
      <point x="299" y="657" type="line" smooth="yes"/>
    </contour>
    <contour>
      <point x="112" y="513"/>
      <point x="29" y="420"/>
      <point x="29" y="266" type="curve" smooth="yes"/>
      <point x="29" y="117"/>
      <point x="104" y="29"/>
      <point x="233" y="29" type="curve" smooth="yes"/>
      <point x="274" y="29"/>
      <point x="318" y="36"/>
      <point x="355" y="48" type="curve"/>
      <point x="369" y="151" type="line"/>
      <point x="358" y="159" type="line"/>
      <point x="323" y="143"/>
      <point x="289" y="134"/>
      <point x="259" y="134" type="curve" smooth="yes"/>
      <point x="192" y="134"/>
      <point x="155" y="185"/>
      <point x="155" y="278" type="curve" smooth="yes"/>
      <point x="155" y="360"/>
      <point x="189" y="405"/>
      <point x="251" y="405" type="curve" smooth="yes"/>
      <point x="280" y="405"/>
      <point x="310" y="394"/>
      <point x="341" y="377" type="curve"/>
      <point x="352" y="382" type="line"/>
      <point x="374" y="488" type="line"/>
      <point x="341" y="504"/>
      <point x="295" y="513"/>
      <point x="252" y="513" type="curve" smooth="yes"/>
    </contour>
    <contour>
      <point x="240" y="504" type="move" name="top"/>
    </contour>
    <contour>
      <point x="224" y="39" type="move" name="bottom"/>
    </contour>
  </outline>
</glyph>
<glyph name="copyright" format="1">
  <advance width="687"/>
  <unicode hex="00A9"/>
  <outline>
    <contour>
      <point x="163" y="598"/>
      <point x="43" y="476"/>
      <point x="43" y="293" type="curve" smooth="yes"/>
      <point x="43" y="110"/>
      <point x="163" y="-12"/>
      <point x="342" y="-12" type="curve" smooth="yes"/>
      <point x="523" y="-12"/>
      <point x="642" y="110"/>
      <point x="642" y="293" type="curve" smooth="yes"/>
      <point x="642" y="476"/>
      <point x="523" y="598"/>
      <point x="342" y="598" type="curve" smooth="yes"/>
    </contour>
    <contour>
      <point x="254" y="465"/>
      <point x="192" y="402"/>
      <point x="192" y="293" type="curve" smooth="yes"/>
      <point x="192" y="186"/>
      <point x="247" y="127"/>
      <point x="359" y="127" type="curve" smooth="yes"/>
      <point x="384" y="127"/>
      <point x="412" y="131"/>
      <point x="438" y="141" type="curve"/>
      <point x="446" y="211" type="line"/>
      <point x="438" y="215" type="line"/>
      <point x="416" y="206"/>
      <point x="387" y="200"/>
      <point x="365" y="200" type="curve" smooth="yes"/>
      <point x="310" y="200"/>
      <point x="285" y="234"/>
      <point x="285" y="302" type="curve" smooth="yes"/>
      <point x="285" y="365"/>
      <point x="309" y="392"/>
      <point x="361" y="392" type="curve" smooth="yes"/>
      <point x="383" y="392"/>
      <point x="412" y="385"/>
      <point x="431" y="374" type="curve"/>
      <point x="437" y="378" type="line"/>
      <point x="454" y="448" type="line"/>
      <point x="427" y="458"/>
      <point x="397" y="465"/>
      <point x="365" y="465" type="curve" smooth="yes"/>
    </contour>
    <contour>
      <point x="494" y="552"/>
      <point x="596" y="448"/>
      <point x="596" y="293" type="curve" smooth="yes"/>
      <point x="596" y="138"/>
      <point x="494" y="34"/>
      <point x="343" y="34" type="curve" smooth="yes"/>
      <point x="191" y="34"/>
      <point x="90" y="138"/>
      <point x="90" y="293" type="curve" smooth="yes"/>
      <point x="90" y="448"/>
      <point x="191" y="552"/>
      <point x="343" y="552" type="curve" smooth="yes"/>
    </contour>
  </outline>
</glyph>
<glyph name="macron" format="1">
  <advance width="389"/>
  <unicode hex="00AF"/>
  <outline>
    <contour>
      <point x="54" y="660" type="line"/>
      <point x="47" y="586" type="line"/>
      <point x="56" y="577" type="line"/>
      <point x="336" y="577" type="line"/>
      <point x="342" y="651" type="line"/>
      <point x="334" y="660" type="line"/>
    </contour>
    <contour>
      <point x="195" y="465" type="move" name="_top"/>
    </contour>
  </outline>
</glyph>
<glyph name="degree" format="1">
  <advance width="293"/>
  <unicode hex="00B0"/>
  <outline>
    <contour>
      <point x="74" y="653"/>
      <point x="16" y="596"/>
      <point x="16" y="523" type="curve" smooth="yes"/>
      <point x="16" y="451"/>
      <point x="74" y="394"/>
      <point x="146" y="394" type="curve" smooth="yes"/>
      <point x="219" y="394"/>
      <point x="276" y="451"/>
      <point x="276" y="523" type="curve" smooth="yes"/>
      <point x="276" y="596"/>
      <point x="219" y="653"/>
      <point x="146" y="653" type="curve" smooth="yes"/>
    </contour>
    <contour>
      <point x="187" y="595"/>
      <point x="219" y="564"/>
      <point x="219" y="523" type="curve" smooth="yes"/>
      <point x="219" y="483"/>
      <point x="187" y="452"/>
      <point x="146" y="452" type="curve" smooth="yes"/>
      <point x="106" y="452"/>
      <point x="74" y="483"/>
      <point x="74" y="523" type="curve" smooth="yes"/>
      <point x="74" y="564"/>
      <point x="106" y="595"/>
      <point x="146" y="595" type="curve" smooth="yes"/>
    </contour>
  </outline>
</glyph>
<glyph name="acute" format="1">
  <advance width="389"/>
  <unicode hex="00B4"/>
  <outline>
    <contour>
      <point x="196" y="669"/>
      <point x="138" y="622"/>
      <point x="74" y="571" type="curve"/>
      <point x="106" y="521" type="line"/>
      <point x="119" y="520" type="line"/>
      <point x="183" y="557"/>
      <point x="244" y="595"/>
      <point x="313" y="638" type="curve"/>
      <point x="316" y="651" type="line"/>
      <point x="268" y="723" type="line"/>
      <point x="255" y="724" type="line"/>
    </contour>
    <contour>
      <point x="171" y="465" type="move" name="_top"/>
    </contour>
  </outline>
</glyph>
<glyph name="germandbls" format="1">
  <advance width="588"/>
  <unicode hex="00DF"/>
  <outline>
    <contour>
      <point x="145" y="512"/>
      <point x="62" y="436"/>
      <point x="62" y="321" type="curve" smooth="yes"/>
      <point x="65" y="148" type="line"/>
      <point x="59" y="0" type="line"/>
      <point x="185.007" y="0" type="line"/>
      <point x="180" y="162" type="line"/>
      <point x="183" y="321" type="line"/>
      <point x="183" y="382"/>
      <point x="217" y="413"/>
      <point x="287" y="413" type="curve" smooth="yes"/>
      <point x="316" y="413"/>
      <point x="339" y="407"/>
      <point x="367" y="394" type="curve"/>
      <point x="262" y="262" type="line"/>
      <point x="265" y="246" type="line"/>
      <point x="378" y="201"/>
      <point x="427" y="179"/>
      <point x="427" y="141" type="curve" smooth="yes"/>
      <point x="427" y="113"/>
      <point x="404" y="92"/>
      <point x="369" y="92" type="curve" smooth="yes"/>
      <point x="337" y="92"/>
      <point x="294" y="111"/>
      <point x="254" y="145" type="curve"/>
      <point x="244" y="139" type="line"/>
      <point x="227" y="24" type="line"/>
      <point x="271" y="3"/>
      <point x="327" y="-8"/>
      <point x="377" y="-8" type="curve" smooth="yes"/>
      <point x="477" y="-8"/>
      <point x="564" y="38"/>
      <point x="564" y="140" type="curve" smooth="yes"/>
      <point x="564" y="209"/>
      <point x="521" y="244"/>
      <point x="410" y="299" type="curve"/>
      <point x="525" y="442" type="line"/>
      <point x="520" y="458" type="line"/>
      <point x="438" y="495"/>
      <point x="375" y="512"/>
      <point x="299" y="512" type="curve" smooth="yes"/>
    </contour>
  </outline>
</glyph>
<glyph name="ae" format="1">
  <advance width="711"/>
  <unicode hex="00E6"/>
  <outline>
    <contour>
      <point x="255" y="505" type="line"/>
      <point x="-4" y="0" type="line"/>
      <point x="112" y="0" type="line"/>
      <point x="136" y="76" type="line"/>
      <point x="304" y="396" type="line"/>
      <point x="312" y="396" type="line"/>
      <point x="356" y="69" type="line"/>
      <point x="360" y="0" type="line"/>
      <point x="688" y="0" type="line"/>
      <point x="697" y="89" type="line"/>
      <point x="689" y="98" type="line"/>
      <point x="551" y="93" type="line"/>
      <point x="465" y="93" type="line"/>
      <point x="424" y="413" type="line"/>
      <point x="496" y="413" type="line"/>
      <point x="627" y="407" type="line"/>
      <point x="636" y="495" type="line"/>
      <point x="629" y="505" type="line"/>
    </contour>
    <contour>
      <point x="421" y="275" type="line"/>
      <point x="140" y="204" type="line"/>
      <point x="112" y="102" type="line"/>
      <point x="432" y="186" type="line"/>
      <point x="622" y="229" type="line"/>
      <point x="612" y="315" type="line"/>
      <point x="604" y="322" type="line"/>
    </contour>
    <contour>
      <point x="418" y="504" type="move" name="top"/>
    </contour>
  </outline>
</glyph>
<glyph name="eth" format="1">
  <advance width="597"/>
  <unicode hex="00F0"/>
  <outline>
    <contour>
      <point x="23" y="289" type="line"/>
      <point x="18" y="218" type="line"/>
      <point x="25" y="208" type="line"/>
      <point x="327" y="208" type="line"/>
      <point x="332" y="280" type="line"/>
      <point x="326" y="289" type="line"/>
    </contour>
    <component base="d" xOffset="24"/>
  </outline>
</glyph>
<glyph name="thorn" format="1">
  <advance width="500"/>
  <unicode hex="00FE"/>
  <outline>
    <contour>
      <point x="73" y="430" type="line"/>
      <point x="147" y="334" type="line"/>
      <point x="252" y="339" type="line"/>
      <point x="312" y="336"/>
      <point x="340" y="316"/>
      <point x="340" y="261" type="curve" smooth="yes"/>
      <point x="340" y="211"/>
      <point x="315" y="187"/>
      <point x="271" y="173" type="curve"/>
      <point x="118" y="180" type="line"/>
      <point x="118" y="80" type="line"/>
      <point x="247" y="82" type="line"/>
      <point x="393" y="82"/>
      <point x="474" y="152"/>
      <point x="474" y="272" type="curve" smooth="yes"/>
      <point x="474" y="377"/>
      <point x="410" y="431"/>
      <point x="294" y="431" type="curve"/>
    </contour>
    <contour>
      <point x="73" y="505" type="line"/>
      <point x="79" y="150" type="line"/>
      <point x="73" y="0" type="line"/>
      <point x="200" y="0" type="line"/>
      <point x="195" y="162" type="line"/>
      <point x="202" y="505" type="line"/>
    </contour>
  </outline>
</glyph>
<glyph name="Eng" format="1">
  <advance width="695"/>
  <unicode hex="014A"/>
  <outline>
    <contour>
      <point x="492" y="638" type="line"/>
      <point x="496" y="217" type="line"/>
      <point x="487" y="217" type="line"/>
      <point x="225" y="644" type="line"/>
      <point x="79" y="644" type="line"/>
      <point x="86" y="190" type="line"/>
      <point x="78" y="0" type="line"/>
      <point x="203" y="0" type="line"/>
      <point x="197" y="222" type="line"/>
      <point x="198" y="436" type="line"/>
      <point x="207" y="436" type="line"/>
      <point x="477" y="1" type="line"/>
      <point x="462" y="-33"/>
      <point x="430" y="-59"/>
      <point x="376" y="-86" type="curve"/>
      <point x="376" y="-99" type="line"/>
      <point x="418" y="-171" type="line"/>
      <point x="564" y="-115"/>
      <point x="614" y="-54"/>
      <point x="614" y="56" type="curve"/>
      <point x="610" y="199" type="line"/>
      <point x="619" y="646" type="line"/>
    </contour>
  </outline>
</glyph>
<glyph name="eng" format="1">
  <advance width="604"/>
  <unicode hex="014B"/>
  <outline>
    <contour>
      <point x="417" y="500" type="line"/>
      <point x="420" y="206" type="line"/>
      <point x="411" y="206" type="line"/>
      <point x="209" y="505" type="line"/>
      <point x="74" y="505" type="line"/>
      <point x="79" y="148" type="line"/>
      <point x="73" y="0" type="line"/>
      <point x="187" y="0" type="line"/>
      <point x="183" y="177" type="line"/>
      <point x="183" y="313" type="line"/>
      <point x="191" y="313" type="line"/>
      <point x="406" y="-4" type="line"/>
      <point x="400" y="-31"/>
      <point x="380" y="-51"/>
      <point x="348" y="-71" type="curve"/>
      <point x="348" y="-82" type="line"/>
      <point x="388" y="-135" type="line"/>
      <point x="494" y="-90"/>
      <point x="528" y="-44"/>
      <point x="528" y="41" type="curve"/>
      <point x="526" y="160" type="line"/>
      <point x="532" y="508" type="line"/>
    </contour>
  </outline>
</glyph>
<glyph name="tcedilla" format="1">
  <advance width="446"/>
  <unicode hex="0163"/>
  <outline>
    <contour>
      <point x="196" y="21" type="line"/>
      <point x="174" y="-74" type="line"/>
      <point x="223" y="-102" type="line" smooth="yes"/>
      <point x="233" y="-108"/>
      <point x="239" y="-113"/>
      <point x="239" y="-124" type="curve" smooth="yes"/>
      <point x="239" y="-137"/>
      <point x="230" y="-145"/>
      <point x="215" y="-145" type="curve" smooth="yes"/>
      <point x="196" y="-145"/>
      <point x="176" y="-133"/>
      <point x="158" y="-115" type="curve"/>
      <point x="151" y="-117" type="line"/>
      <point x="142" y="-172" type="line"/>
      <point x="163" y="-188"/>
      <point x="189" y="-200"/>
      <point x="223" y="-200" type="curve" smooth="yes"/>
      <point x="278" y="-200"/>
      <point x="315" y="-169"/>
      <point x="315" y="-126" type="curve" smooth="yes"/>
      <point x="315" y="-103"/>
      <point x="305" y="-85"/>
      <point x="275" y="-67" type="curve" smooth="yes"/>
      <point x="241" y="-48" type="line"/>
      <point x="257" y="21" type="line"/>
    </contour>
    <component base="t" xOffset="-3"/>
  </outline>
</glyph>
<glyph name="uogonek" format="1">
  <advance width="557"/>
  <unicode hex="0173"/>
  <outline>
    <contour>
      <point x="370" y="67" type="line"/>
      <point x="302" y="-32" type="line" smooth="yes"/>
      <point x="283" y="-60"/>
      <point x="275" y="-85"/>
      <point x="275" y="-110" type="curve" smooth="yes"/>
      <point x="275" y="-161"/>
      <point x="309" y="-198"/>
      <point x="365" y="-198" type="curve" smooth="yes"/>
      <point x="401" y="-198"/>
      <point x="433" y="-181"/>
      <point x="470" y="-148" type="curve"/>
      <point x="458" y="-94" type="line"/>
      <point x="450" y="-94" type="line"/>
      <point x="428" y="-114"/>
      <point x="404" y="-124"/>
      <point x="383" y="-124" type="curve" smooth="yes"/>
      <point x="358" y="-124"/>
      <point x="347" y="-110"/>
      <point x="347" y="-91" type="curve" smooth="yes"/>
      <point x="347" y="-77"/>
      <point x="353" y="-59"/>
      <point x="364" y="-43" type="curve" smooth="yes"/>
      <point x="433" y="67" type="line"/>
    </contour>
    <component base="u"/>
  </outline>
</glyph>
<glyph name="florin" format="1">
  <advance width="316"/>
  <unicode hex="0192"/>
  <outline>
    <contour>
      <point x="206" y="620"/>
      <point x="127" y="559"/>
      <point x="114" y="447" type="curve" smooth="yes"/>
      <point x="106" y="385" type="line"/>
      <point x="35" y="385" type="line"/>
      <point x="27" y="318" type="line"/>
      <point x="32" y="311" type="line"/>
      <point x="97" y="311" type="line"/>
      <point x="82" y="174" type="line"/>
      <point x="66" y="52" type="line" smooth="yes"/>
      <point x="57" y="-13"/>
      <point x="36" y="-48"/>
      <point x="-16" y="-87" type="curve"/>
      <point x="-17" y="-97" type="line"/>
      <point x="37" y="-150" type="line"/>
      <point x="131" y="-93"/>
      <point x="166" y="-40"/>
      <point x="177" y="55" type="curve"/>
      <point x="192" y="185" type="line"/>
      <point x="210" y="311" type="line"/>
      <point x="319" y="311" type="line"/>
      <point x="325" y="377" type="line"/>
      <point x="322" y="385" type="line"/>
      <point x="220" y="385" type="line"/>
      <point x="231" y="467" type="line" smooth="yes"/>
      <point x="238" y="512"/>
      <point x="261" y="535"/>
      <point x="307" y="535" type="curve" smooth="yes"/>
      <point x="325" y="535"/>
      <point x="348" y="531"/>
      <point x="379" y="518" type="curve"/>
      <point x="388" y="523" type="line"/>
      <point x="408" y="611" type="line"/>
      <point x="378" y="617"/>
      <point x="354" y="620"/>
      <point x="328" y="620" type="curve" smooth="yes"/>
    </contour>
  </outline>
</glyph>
<glyph name="ohorn" format="1">
  <advance width="566"/>
  <unicode hex="01A1"/>
  <outline>
    <contour>
      <point x="447" y="579" type="line"/>
      <point x="464" y="565"/>
      <point x="473" y="547"/>
      <point x="473" y="528" type="curve" smooth="yes"/>
      <point x="473" y="504"/>
      <point x="456" y="491"/>
      <point x="429" y="491" type="curve" smooth="yes"/>
      <point x="393" y="491"/>
      <point x="355" y="513"/>
      <point x="282" y="513" type="curve" smooth="yes"/>
      <point x="130" y="513"/>
      <point x="33" y="416"/>
      <point x="33" y="245" type="curve" smooth="yes"/>
      <point x="33" y="85"/>
      <point x="118" y="-9"/>
      <point x="273" y="-9" type="curve" smooth="yes"/>
      <point x="435" y="-9"/>
      <point x="528" y="93"/>
      <point x="528" y="261" type="curve" smooth="yes"/>
      <point x="528" y="332"/>
      <point x="511" y="387"/>
      <point x="476" y="430" type="curve"/>
      <point x="530" y="442"/>
      <point x="570" y="480"/>
      <point x="570" y="533" type="curve" smooth="yes"/>
      <point x="570" y="579"/>
      <point x="540" y="611"/>
      <point x="508" y="611" type="curve" smooth="yes"/>
      <point x="489" y="611"/>
      <point x="467" y="600"/>
      <point x="450" y="588" type="curve"/>
    </contour>
    <contour>
      <point x="198" y="86"/>
      <point x="164" y="130"/>
      <point x="164" y="254" type="curve" smooth="yes"/>
      <point x="164" y="372"/>
      <point x="195" y="412"/>
      <point x="278" y="412" type="curve" smooth="yes"/>
      <point x="363" y="412"/>
      <point x="397" y="369"/>
      <point x="397" y="245" type="curve" smooth="yes"/>
      <point x="397" y="125"/>
      <point x="364" y="86"/>
      <point x="283" y="86" type="curve" smooth="yes"/>
    </contour>
    <contour>
      <point x="273" y="505" type="move" name="top"/>
    </contour>
  </outline>
</glyph>
<glyph name="uhorn" format="1">
  <advance width="566"/>
  <unicode hex="01B0"/>
  <outline>
    <contour>
      <point x="496" y="623"/>
      <point x="475" y="612"/>
      <point x="457" y="599" type="curve"/>
      <point x="454" y="590" type="line"/>
      <point x="472" y="576"/>
      <point x="479" y="561"/>
      <point x="479" y="543" type="curve" smooth="yes"/>
      <point x="479" y="517"/>
      <point x="464" y="505"/>
      <point x="430" y="505" type="curve"/>
      <point x="448" y="445" type="line"/>
      <point x="524" y="455"/>
      <point x="576" y="499"/>
      <point x="576" y="555" type="curve" smooth="yes"/>
      <point x="576" y="593"/>
      <point x="548" y="623"/>
      <point x="517" y="623" type="curve" smooth="yes"/>
    </contour>
    <component base="u" xOffset="-3"/>
    <contour>
      <point x="269" y="505" type="move" name="top"/>
    </contour>
  </outline>
</glyph>
<glyph name="ring" format="1">
  <advance width="389"/>
  <unicode hex="02DA"/>
  <outline>
    <contour>
      <point x="133" y="724"/>
      <point x="98" y="689"/>
      <point x="98" y="629" type="curve" smooth="yes"/>
      <point x="98" y="567"/>
      <point x="133" y="535"/>
      <point x="191" y="535" type="curve" smooth="yes"/>
      <point x="251" y="535"/>
      <point x="290" y="570"/>
      <point x="290" y="633" type="curve" smooth="yes"/>
      <point x="290" y="689"/>
      <point x="258" y="724"/>
      <point x="196" y="724" type="curve" smooth="yes"/>
    </contour>
    <contour>
      <point x="221" y="667"/>
      <point x="234" y="653"/>
      <point x="234" y="628" type="curve" smooth="yes"/>
      <point x="234" y="602"/>
      <point x="220" y="590"/>
      <point x="194" y="590" type="curve" smooth="yes"/>
      <point x="168" y="590"/>
      <point x="153" y="603"/>
      <point x="153" y="630" type="curve" smooth="yes"/>
      <point x="153" y="655"/>
      <point x="165" y="667"/>
      <point x="193" y="667" type="curve" smooth="yes"/>
    </contour>
    <contour>
      <point x="195" y="465" type="move" name="_top"/>
    </contour>
  </outline>
</glyph>
<glyph name="hungarumlaut" format="1">
  <advance width="389"/>
  <unicode hex="02DD"/>
  <outline>
    <contour>
      <point x="213" y="520" type="line"/>
      <point x="225" y="523" type="line"/>
      <point x="274" y="572"/>
      <point x="322" y="621"/>
      <point x="369" y="674" type="curve"/>
      <point x="368" y="684" type="line"/>
      <point x="307" y="728" type="line"/>
      <point x="296" y="726" type="line"/>
      <point x="256" y="667"/>
      <point x="216" y="611"/>
      <point x="172" y="554" type="curve"/>
    </contour>
    <contour>
      <point x="60" y="520" type="line"/>
      <point x="72" y="523" type="line"/>
      <point x="121" y="572"/>
      <point x="169" y="621"/>
      <point x="216" y="674" type="curve"/>
      <point x="215" y="684" type="line"/>
      <point x="154" y="728" type="line"/>
      <point x="143" y="726" type="line"/>
      <point x="103" y="667"/>
      <point x="63" y="611"/>
      <point x="19" y="554" type="curve"/>
    </contour>
    <contour>
      <point x="161" y="465" type="move" name="_top"/>
    </contour>
  </outline>
</glyph>
<glyph name="Delta" format="1">
  <advance width="600"/>
  <unicode hex="0394"/>
  <outline>
    <contour>
      <point x="225" y="644" type="line"/>
      <point x="8" y="0" type="line"/>
      <point x="584" y="0" type="line"/>
      <point x="387" y="644" type="line"/>
    </contour>
    <contour>
      <point x="424" y="104" type="line"/>
      <point x="163" y="104" type="line"/>
      <point x="298" y="517" type="line"/>
      <point x="308" y="517" type="line"/>
    </contour>
  </outline>
</glyph>
<glyph name="Omega" format="1">
  <advance width="754"/>
  <unicode hex="03A9"/>
  <outline>
    <contour>
      <point x="186" y="653"/>
      <point x="81" y="527"/>
      <point x="81" y="367" type="curve" smooth="yes"/>
      <point x="81" y="276"/>
      <point x="116" y="185"/>
      <point x="195" y="106" type="curve"/>
      <point x="193" y="102" type="line"/>
      <point x="133" y="101" type="line"/>
      <point x="41" y="109" type="line"/>
      <point x="25" y="5" type="line"/>
      <point x="33" y="-4" type="line"/>
      <point x="131" y="0" type="line"/>
      <point x="295" y="0" type="line"/>
      <point x="333" y="-2" type="line"/>
      <point x="339" y="3" type="line"/>
      <point x="339" y="89" type="line"/>
      <point x="263" y="160"/>
      <point x="223" y="255"/>
      <point x="223" y="360" type="curve" smooth="yes"/>
      <point x="223" y="471"/>
      <point x="268" y="544"/>
      <point x="375" y="544" type="curve" smooth="yes"/>
      <point x="483" y="544"/>
      <point x="531" y="469"/>
      <point x="531" y="355" type="curve" smooth="yes"/>
      <point x="531" y="252"/>
      <point x="492" y="159"/>
      <point x="413" y="89" type="curve"/>
      <point x="413" y="3" type="line"/>
      <point x="420" y="-2" type="line"/>
      <point x="457" y="0" type="line"/>
      <point x="598" y="0" type="line"/>
      <point x="713" y="-6" type="line"/>
      <point x="729" y="102" type="line"/>
      <point x="722" y="110" type="line"/>
      <point x="637" y="102" type="line"/>
      <point x="560" y="102" type="line"/>
      <point x="557" y="106" type="line"/>
      <point x="635" y="186"/>
      <point x="672" y="283"/>
      <point x="672" y="378" type="curve" smooth="yes"/>
      <point x="672" y="532"/>
      <point x="576" y="653"/>
      <point x="384" y="653" type="curve" smooth="yes"/>
    </contour>
    <contour>
      <point x="20" y="644" type="move" name="topleft"/>
    </contour>
  </outline>
</glyph>
<glyph name="emdash" format="1">
  <advance width="889"/>
  <unicode hex="2014"/>
  <outline>
    <contour>
      <point x="-10" y="303" type="line"/>
      <point x="-17" y="222" type="line"/>
      <point x="-8" y="213" type="line"/>
      <point x="900" y="213" type="line"/>
      <point x="907" y="293" type="line"/>
      <point x="898" y="303" type="line"/>
    </contour>
  </outline>
</glyph>
<glyph name="guilsinglright" format="1">
  <advance width="246"/>
  <unicode hex="203A"/>
  <outline>
    <contour>
      <point x="27" y="383" type="line"/>
      <point x="25" y="370" type="line"/>
      <point x="129" y="230" type="line"/>
      <point x="25" y="89" type="line"/>
      <point x="27" y="76" type="line"/>
      <point x="90" y="43" type="line"/>
      <point x="226" y="221" type="line"/>
      <point x="226" y="243" type="line"/>
      <point x="90" y="417" type="line"/>
    </contour>
  </outline>
</glyph>
<glyph name="franc" format="1">
  <advance width="406"/>
  <unicode hex="20A3"/>
  <outline>
    <contour>
      <point x="76" y="503" type="line"/>
      <point x="81" y="150" type="line"/>
      <point x="76" y="0" type="line"/>
      <point x="188" y="0" type="line"/>
      <point x="183" y="160" type="line"/>
      <point x="189" y="503" type="line"/>
    </contour>
    <contour>
      <point x="19" y="139" type="line"/>
      <point x="15" y="92" type="line"/>
      <point x="20" y="86" type="line"/>
      <point x="297" y="86" type="line"/>
      <point x="301" y="132" type="line"/>
      <point x="295" y="139" type="line"/>
    </contour>
    <contour>
      <point x="264" y="292" type="line"/>
      <point x="157" y="292" type="line"/>
      <point x="154" y="212" type="line"/>
      <point x="157" y="207" type="line"/>
      <point x="256" y="207" type="line"/>
      <point x="360" y="205" type="line"/>
      <point x="367" y="285" type="line"/>
      <point x="361" y="294" type="line"/>
    </contour>
    <contour>
      <point x="151" y="503" type="line"/>
      <point x="149" y="424" type="line"/>
      <point x="151" y="418" type="line"/>
      <point x="272" y="418" type="line"/>
      <point x="404" y="414" type="line"/>
      <point x="412" y="494" type="line"/>
      <point x="405" y="503" type="line"/>
    </contour>
  </outline>
</glyph>
<glyph name="trademark" format="1">
  <advance width="590"/>
  <unicode hex="2122"/>
  <outline>
    <contour>
      <point x="443" y="642" type="line"/>
      <point x="432" y="606" type="line"/>
      <point x="399" y="515" type="line"/>
      <point x="394" y="515" type="line"/>
      <point x="364" y="608" type="line"/>
      <point x="355" y="642" type="line"/>
      <point x="277" y="642" type="line"/>
      <point x="251" y="405" type="line"/>
      <point x="308" y="405" type="line"/>
      <point x="313" y="483" type="line"/>
      <point x="320" y="544" type="line"/>
      <point x="324" y="544" type="line"/>
      <point x="367" y="427" type="line"/>
      <point x="418" y="427" type="line"/>
      <point x="467" y="544" type="line"/>
      <point x="472" y="544" type="line"/>
      <point x="478" y="476" type="line"/>
      <point x="482" y="405" type="line"/>
      <point x="541" y="405" type="line"/>
      <point x="520" y="642" type="line"/>
    </contour>
    <contour>
      <point x="90" y="635" type="line"/>
      <point x="92" y="475" type="line"/>
      <point x="89" y="405" type="line"/>
      <point x="155" y="405" type="line"/>
      <point x="153" y="481" type="line"/>
      <point x="155" y="635" type="line"/>
    </contour>
    <contour>
      <point x="28" y="642" type="line"/>
      <point x="24" y="594" type="line"/>
      <point x="28" y="589" type="line"/>
      <point x="79" y="591" type="line"/>
      <point x="166" y="591" type="line"/>
      <point x="216" y="589" type="line"/>
      <point x="219" y="637" type="line"/>
      <point x="216" y="642" type="line"/>
    </contour>
  </outline>
</glyph>
<glyph name="estimated" format="1">
  <advance width="788"/>
  <unicode hex="212E"/>
  <outline>
    <contour>
      <point x="202" y="650"/>
      <point x="37" y="502"/>
      <point x="37" y="319" type="curve" smooth="yes"/>
      <point x="37" y="137"/>
      <point x="202" y="-11"/>
      <point x="405" y="-11" type="curve" smooth="yes"/>
      <point x="522" y="-11"/>
      <point x="628" y="39"/>
      <point x="695" y="116" type="curve" smooth="yes"/>
      <point x="649" y="116" type="line" smooth="yes"/>
      <point x="590" y="51"/>
      <point x="503" y="9"/>
      <point x="406" y="9" type="curve" smooth="yes"/>
      <point x="316" y="9"/>
      <point x="235" y="46"/>
      <point x="179" y="104" type="curve" smooth="yes"/>
      <point x="174" y="110"/>
      <point x="170" y="117"/>
      <point x="170" y="126" type="curve" smooth="yes"/>
      <point x="170" y="307" type="line" smooth="yes"/>
      <point x="170" y="311"/>
      <point x="173" y="312"/>
      <point x="176" y="312" type="curve" smooth="yes"/>
      <point x="772" y="312" type="line"/>
      <point x="772" y="319" type="line" smooth="yes"/>
      <point x="772" y="502"/>
      <point x="607" y="650"/>
      <point x="405" y="650" type="curve" smooth="yes"/>
    </contour>
    <contour>
      <point x="493" y="630"/>
      <point x="572" y="595"/>
      <point x="629" y="539" type="curve" smooth="yes"/>
      <point x="635" y="533"/>
      <point x="639" y="526"/>
      <point x="639" y="516" type="curve" smooth="yes"/>
      <point x="639" y="337" type="line" smooth="yes"/>
      <point x="639" y="333"/>
      <point x="637" y="331"/>
      <point x="633" y="331" type="curve" smooth="yes"/>
      <point x="175" y="331" type="line" smooth="yes"/>
      <point x="172" y="331"/>
      <point x="169" y="333"/>
      <point x="169" y="337" type="curve" smooth="yes"/>
      <point x="169" y="512" type="line" smooth="yes"/>
      <point x="169" y="521"/>
      <point x="173" y="530"/>
      <point x="180" y="536" type="curve" smooth="yes"/>
      <point x="237" y="594"/>
      <point x="316" y="630"/>
      <point x="405" y="630" type="curve" smooth="yes"/>
    </contour>
  </outline>
</glyph>
<glyph name="product" format="1">
  <advance width="695"/>
  <unicode hex="220F"/>
  <outline>
    <contour>
      <point x="48" y="644" type="line"/>
      <point x="39" y="545" type="line"/>
      <point x="48" y="534" type="line"/>
      <point x="170" y="538" type="line"/>
      <point x="527" y="538" type="line"/>
      <point x="648" y="534" type="line"/>
      <point x="657" y="633" type="line"/>
      <point x="648" y="644" type="line"/>
    </contour>
    <component base="I" xOffset="19"/>
    <component base="I" xOffset="377"/>
  </outline>
</glyph>
<glyph name="integral" format="1">
  <advance width="295"/>
  <unicode hex="222B"/>
  <outline>
    <contour>
      <point x="154" y="712"/>
      <point x="82" y="649"/>
      <point x="83" y="536" type="curve"/>
      <point x="87" y="50" type="line" smooth="yes"/>
      <point x="88" y="-14"/>
      <point x="68" y="-48"/>
      <point x="20" y="-86" type="curve"/>
      <point x="20" y="-97" type="line"/>
      <point x="77" y="-153" type="line"/>
      <point x="174" y="-96"/>
      <point x="206" y="-42"/>
      <point x="205" y="54" type="curve" smooth="yes"/>
      <point x="204" y="557" type="line"/>
      <point x="205" y="600"/>
      <point x="224" y="621"/>
      <point x="264" y="621" type="curve" smooth="yes"/>
      <point x="281" y="621"/>
      <point x="307" y="616"/>
      <point x="340" y="603" type="curve"/>
      <point x="349" y="609" type="line"/>
      <point x="357" y="703" type="line"/>
      <point x="330" y="709"/>
      <point x="304" y="712"/>
      <point x="277" y="712" type="curve" smooth="yes"/>
    </contour>
  </outline>
</glyph>
<glyph name="I.ss01" format="1">
  <advance width="279"/>
  <outline>
    <contour>
      <point x="-100" y="456" type="line"/>
      <point x="379" y="456" type="line"/>
      <point x="379" y="505" type="line"/>
      <point x="-100" y="505" type="line"/>
    </contour>
    <contour>
      <point x="-100" y="0" type="line"/>
      <point x="379" y="0" type="line"/>
      <point x="379" y="49" type="line"/>
      <point x="-100" y="49" type="line"/>
    </contour>
    <component base="i" xOffset="1" yOffset="1" xScale="1" yScale="1"/>
  </outline>
</glyph>
<glyph name="M.ss01" format="1">
  <advance width="686"/>
  <outline>
    <contour>
      <point x="-100" y="505" type="line"/>
      <point x="-100" y="456" type="line"/>
      <point x="786" y="456" type="line"/>
      <point x="786" y="505" type="line"/>
    </contour>
    <contour>
      <point x="-100" y="49" type="line"/>
      <point x="-100" y="0" type="line"/>
      <point x="786" y="0" type="line"/>
      <point x="786" y="49" type="line"/>
    </contour>
    <contour>
      <point x="441" y="488" type="line"/>
      <point x="419" y="425" type="line"/>
      <point x="345" y="242" type="line"/>
      <point x="337" y="242" type="line"/>
      <point x="267" y="427" type="line"/>
      <point x="249" y="488" type="line"/>
      <point x="109" y="488" type="line"/>
      <point x="59" y="11" type="line"/>
      <point x="161" y="11" type="line"/>
      <point x="170" y="180" type="line"/>
      <point x="185" y="326" type="line"/>
      <point x="192" y="326" type="line"/>
      <point x="288" y="88" type="line"/>
      <point x="380" y="88" type="line"/>
      <point x="487" y="326" type="line"/>
      <point x="494" y="326" type="line"/>
      <point x="509" y="171" type="line"/>
      <point x="515" y="11" type="line"/>
      <point x="621" y="11" type="line"/>
      <point x="577" y="488" type="line"/>
    </contour>
  </outline>
</glyph>
<glyph name="circle2" format="1">
  <advance width="641"/>
  <outline>
    <contour>
      <point x="138" y="649"/>
      <point x="-10" y="500"/>
      <point x="-10" y="317" type="curve" smooth="yes"/>
      <point x="-10" y="134"/>
      <point x="138" y="-14"/>
      <point x="321" y="-14" type="curve" smooth="yes"/>
      <point x="504" y="-14"/>
      <point x="653" y="134"/>
      <point x="653" y="317" type="curve" smooth="yes"/>
      <point x="653" y="500"/>
      <point x="504" y="649"/>
      <point x="321" y="649" type="curve" smooth="yes"/>
    </contour>
  </outline>
</glyph>
<glyph name="dieresisacute" format="1">
  <advance width="389"/>
  <outline>
    <contour>
      <point x="244" y="660"/>
      <point x="220" y="635"/>
      <point x="220" y="596" type="curve" smooth="yes"/>
      <point x="220" y="557"/>
      <point x="242" y="535"/>
      <point x="279" y="535" type="curve" smooth="yes"/>
      <point x="319" y="535"/>
      <point x="343" y="561"/>
      <point x="343" y="600" type="curve" smooth="yes"/>
      <point x="343" y="638"/>
      <point x="321" y="660"/>
      <point x="284" y="660" type="curve" smooth="yes"/>
    </contour>
    <contour>
      <point x="70" y="660"/>
      <point x="46" y="635"/>
      <point x="46" y="596" type="curve" smooth="yes"/>
      <point x="46" y="557"/>
      <point x="68" y="535"/>
      <point x="105" y="535" type="curve" smooth="yes"/>
      <point x="145" y="535"/>
      <point x="169" y="561"/>
      <point x="169" y="600" type="curve" smooth="yes"/>
      <point x="169" y="638"/>
      <point x="147" y="660"/>
      <point x="110" y="660" type="curve" smooth="yes"/>
    </contour>
    <contour>
      <point x="212" y="817"/>
      <point x="142" y="794"/>
      <point x="64" y="771" type="curve"/>
      <point x="75" y="712" type="line"/>
      <point x="88" y="707" type="line"/>
      <point x="161" y="717"/>
      <point x="233" y="730"/>
      <point x="313" y="745" type="curve"/>
      <point x="319" y="757" type="line"/>
      <point x="299" y="840" type="line"/>
      <point x="288" y="846" type="line"/>
    </contour>
    <contour>
      <point x="195" y="465" type="move" name="_top"/>
    </contour>
  </outline>
</glyph>
<glyph name="five.tosf" format="1">
  <advance width="475"/>
  <outline>
    <contour>
      <point x="321" y="506" type="line"/>
      <point x="159" y="506" type="line"/>
      <point x="98" y="508" type="line"/>
      <point x="83" y="493" type="line"/>
      <point x="77" y="208" type="line"/>
      <point x="86" y="198" type="line"/>
      <point x="188" y="180" type="line" smooth="yes"/>
      <point x="263" y="166"/>
      <point x="297" y="142"/>
      <point x="297" y="99" type="curve" smooth="yes"/>
      <point x="297" y="41"/>
      <point x="242" y="5"/>
      <point x="153" y="5" type="curve" smooth="yes"/>
      <point x="117" y="5"/>
      <point x="80" y="10"/>
      <point x="40" y="20" type="curve"/>
      <point x="30" y="10" type="line"/>
      <point x="37" y="-85" type="line"/>
      <point x="73" y="-92"/>
      <point x="117" y="-97"/>
      <point x="151" y="-97" type="curve" smooth="yes"/>
      <point x="314" y="-97"/>
      <point x="423" y="-13"/>
      <point x="423" y="113" type="curve" smooth="yes"/>
      <point x="423" y="200"/>
      <point x="367" y="250"/>
      <point x="247" y="275" type="curve" smooth="yes"/>
      <point x="180" y="288" type="line"/>
      <point x="184" y="402" type="line"/>
      <point x="319" y="402" type="line"/>
      <point x="408" y="392" type="line"/>
      <point x="417" y="402" type="line"/>
      <point x="431" y="503" type="line"/>
      <point x="424" y="511" type="line"/>
    </contour>
  </outline>
</glyph>
<glyph name="four.tf" format="1">
  <advance width="475"/>
  <outline>
    <contour>
      <point x="247" y="586" type="line"/>
      <point x="15" y="236" type="line"/>
      <point x="15" y="151" type="line"/>
      <point x="24" y="140" type="line"/>
      <point x="109" y="142" type="line"/>
      <point x="336" y="142" type="line"/>
      <point x="444" y="140" type="line"/>
      <point x="451" y="233" type="line"/>
      <point x="443" y="244" type="line"/>
      <point x="129" y="244" type="line"/>
      <point x="251" y="436" type="line"/>
      <point x="259" y="436" type="line"/>
      <point x="260" y="218" type="line"/>
      <point x="255" y="2" type="line"/>
      <point x="262" y="-7" type="line"/>
      <point x="366" y="0" type="line"/>
      <point x="373" y="10" type="line"/>
      <point x="365" y="194" type="line"/>
      <point x="368" y="586" type="line"/>
    </contour>
  </outline>
</glyph>
<glyph name="h.sups" format="1">
  <advance width="366"/>
  <outline>
    <contour>
      <point x="196" y="642"/>
      <point x="170" y="623"/>
      <point x="145" y="598" type="curve"/>
      <point x="128" y="598" type="line"/>
      <point x="128" y="536" type="line"/>
      <point x="150" y="557"/>
      <point x="171" y="566"/>
      <point x="190" y="566" type="curve" smooth="yes"/>
      <point x="216" y="566"/>
      <point x="232" y="550"/>
      <point x="232" y="517" type="curve"/>
      <point x="226" y="330" type="line"/>
      <point x="329" y="330" type="line"/>
      <point x="325" y="469" type="line"/>
      <point x="328" y="559" type="line" smooth="yes"/>
      <point x="329" y="617"/>
      <point x="293" y="647"/>
      <point x="229" y="647" type="curve"/>
    </contour>
    <contour>
      <point x="187" y="456" type="move"/>
    </contour>
    <contour>
      <point x="42" y="796" type="line"/>
      <point x="46" y="459" type="line"/>
      <point x="41" y="330" type="line"/>
      <point x="145" y="330" type="line"/>
      <point x="141" y="469" type="line"/>
      <point x="145" y="802" type="line"/>
    </contour>
    <contour>
      <point x="189" y="157" type="move" name="center"/>
    </contour>
    <contour>
      <point x="95" y="441" type="move" name="top"/>
    </contour>
  </outline>
</glyph>
<glyph name="j.sups" format="1">
  <advance width="207"/>
  <outline>
    <contour>
      <point x="62" y="805"/>
      <point x="40" y="782"/>
      <point x="40" y="749" type="curve" smooth="yes"/>
      <point x="40" y="715"/>
      <point x="59" y="696"/>
      <point x="92" y="696" type="curve" smooth="yes"/>
      <point x="124" y="696"/>
      <point x="145" y="718"/>
      <point x="145" y="752" type="curve" smooth="yes"/>
      <point x="145" y="785"/>
      <point x="127" y="805"/>
      <point x="95" y="805" type="curve" smooth="yes"/>
    </contour>
    <contour>
      <point x="53" y="642" type="line"/>
      <point x="10" y="642" type="line"/>
      <point x="5" y="570" type="line"/>
      <point x="10" y="563" type="line"/>
      <point x="52" y="565" type="line"/>
      <point x="53" y="459" type="line"/>
      <point x="53" y="347" type="line" smooth="yes"/>
      <point x="53" y="302"/>
      <point x="40" y="275"/>
      <point x="10" y="254" type="curve"/>
      <point x="10" y="245" type="line"/>
      <point x="45" y="199" type="line"/>
      <point x="118" y="234"/>
      <point x="150" y="279"/>
      <point x="150" y="350" type="curve"/>
      <point x="146" y="469" type="line"/>
      <point x="151" y="645" type="line"/>
      <point x="149" y="647" type="line"/>
    </contour>
  </outline>
</glyph>
<glyph name="left" format="1">
  <advance width="421"/>
  <outline>
    <contour>
      <point x="37" y="230" type="line"/>
      <point x="333" y="82" type="line"/>
      <point x="333" y="379" type="line"/>
    </contour>
  </outline>
</glyph>
<glyph name="m.sups" format="1">
  <advance width="555"/>
  <outline>
    <contour>
      <point x="383" y="642"/>
      <point x="352" y="623"/>
      <point x="327" y="597" type="curve"/>
      <point x="312" y="597" type="line"/>
      <point x="314" y="538" type="line"/>
      <point x="337" y="557"/>
      <point x="358" y="568"/>
      <point x="379" y="568" type="curve" smooth="yes"/>
      <point x="406" y="568"/>
      <point x="421" y="551"/>
      <point x="421" y="518" type="curve"/>
      <point x="416" y="330" type="line"/>
      <point x="518" y="330" type="line"/>
      <point x="515" y="469" type="line"/>
      <point x="517" y="559" type="line" smooth="yes"/>
      <point x="518" y="617"/>
      <point x="482" y="647"/>
      <point x="418" y="647" type="curve"/>
    </contour>
    <contour>
      <point x="42" y="638" type="line"/>
      <point x="46" y="459" type="line"/>
      <point x="41" y="330" type="line"/>
      <point x="143" y="330" type="line"/>
      <point x="139" y="469" type="line"/>
      <point x="139" y="646" type="line"/>
    </contour>
    <contour>
      <point x="200" y="397" type="move"/>
    </contour>
    <contour>
      <point x="197" y="642"/>
      <point x="169" y="623"/>
      <point x="143" y="598" type="curve"/>
      <point x="128" y="598" type="line"/>
      <point x="127" y="537" type="line"/>
      <point x="150" y="557"/>
      <point x="170" y="568"/>
      <point x="191" y="568" type="curve" smooth="yes"/>
      <point x="219" y="568"/>
      <point x="234" y="551"/>
      <point x="234" y="518" type="curve"/>
      <point x="229" y="330" type="line"/>
      <point x="331" y="330" type="line"/>
      <point x="327" y="469" type="line"/>
      <point x="330" y="559" type="line" smooth="yes"/>
      <point x="330" y="617"/>
      <point x="295" y="647"/>
      <point x="230" y="647" type="curve"/>
    </contour>
  </outline>
</glyph>
<glyph name="macron.i" format="1">
  <advance width="389"/>
  <outline>
    <contour>
      <point x="81" y="660" type="line"/>
      <point x="74" y="586" type="line"/>
      <point x="83" y="577" type="line"/>
      <point x="308" y="577" type="line"/>
      <point x="315" y="651" type="line"/>
      <point x="306" y="660" type="line"/>
    </contour>
    <contour>
      <point x="195" y="465" type="move" name="_top"/>
    </contour>
  </outline>
</glyph>
<glyph name="nine.tosf" format="1">
  <advance width="475"/>
  <outline>
    <contour>
      <point x="99" y="514"/>
      <point x="31" y="422"/>
      <point x="31" y="318" type="curve"/>
      <point x="31" y="221"/>
      <point x="90" y="143"/>
      <point x="197" y="143" type="curve" smooth="yes"/>
      <point x="231" y="143"/>
      <point x="266" y="155"/>
      <point x="294" y="171" type="curve"/>
      <point x="319" y="144" type="line"/>
      <point x="336" y="273" type="line"/>
      <point x="303" y="251"/>
      <point x="269" y="237"/>
      <point x="235" y="237" type="curve" smooth="yes"/>
      <point x="179" y="237"/>
      <point x="150" y="269"/>
      <point x="150" y="330" type="curve"/>
      <point x="150" y="393"/>
      <point x="181" y="427"/>
      <point x="237" y="427" type="curve"/>
      <point x="302" y="427"/>
      <point x="323" y="377"/>
      <point x="323" y="288" type="curve"/>
      <point x="323" y="131"/>
      <point x="257" y="55"/>
      <point x="68" y="-18" type="curve"/>
      <point x="68" y="-32" type="line"/>
      <point x="150" y="-91" type="line"/>
      <point x="156" y="-91" type="line"/>
      <point x="339" y="-10"/>
      <point x="444" y="126"/>
      <point x="444" y="290" type="curve"/>
      <point x="444" y="430"/>
      <point x="368" y="514"/>
      <point x="241" y="514" type="curve"/>
    </contour>
  </outline>
</glyph>
<glyph name="one.dnom" format="1">
  <advance width="276"/>
  <outline>
    <contour>
      <point x="10" y="345" type="line"/>
      <point x="10" y="262" type="line"/>
      <point x="17" y="257" type="line"/>
      <point x="96" y="275" type="line"/>
      <point x="96" y="126" type="line"/>
      <point x="92" y="0" type="line"/>
      <point x="201" y="0" type="line"/>
      <point x="197" y="138" type="line"/>
      <point x="201" y="380" type="line"/>
      <point x="186" y="391" type="line"/>
    </contour>
  </outline>
</glyph>
<glyph name="one.tf" format="1">
  <advance width="475"/>
  <outline>
    <contour>
      <point x="31" y="526" type="line"/>
      <point x="31" y="420" type="line"/>
      <point x="41" y="413" type="line"/>
      <point x="194" y="442" type="line"/>
      <point x="195" y="194" type="line"/>
      <point x="189" y="0" type="line"/>
      <point x="323" y="0" type="line"/>
      <point x="317" y="208" type="line"/>
      <point x="325" y="580" type="line"/>
      <point x="305" y="594" type="line"/>
    </contour>
  </outline>
</glyph>
<glyph name="ringacute" format="1">
  <advance width="389"/>
  <outline>
    <component base="ring" yOffset="-20"/>
    <component base="acute.cap" xOffset="-66" yOffset="201" xScale="0.99" yScale="0.99"/>
    <contour>
      <point x="195" y="445" type="move" name="_top"/>
    </contour>
  </outline>
</glyph>
<glyph name="seven.lf" format="1">
  <advance width="426"/>
  <outline>
    <contour>
      <point x="16" y="479" type="line"/>
      <point x="23" y="468" type="line"/>
      <point x="114" y="476" type="line"/>
      <point x="270" y="476" type="line"/>
      <point x="69" y="39" type="line"/>
      <point x="77" y="19" type="line"/>
      <point x="183" y="-11" type="line"/>
      <point x="241" y="138" type="line"/>
      <point x="399" y="491" type="line"/>
      <point x="399" y="587" type="line"/>
      <point x="350" y="586" type="line"/>
      <point x="136" y="586" type="line"/>
      <point x="25" y="589" type="line"/>
    </contour>
  </outline>
</glyph>
<glyph name="six.tf" format="1">
  <advance width="475"/>
  <outline>
    <contour>
      <point x="318" y="596" type="line"/>
      <point x="136" y="515"/>
      <point x="31" y="378"/>
      <point x="31" y="215" type="curve"/>
      <point x="31" y="75"/>
      <point x="102" y="-10"/>
      <point x="234" y="-10" type="curve"/>
      <point x="373" y="-10"/>
      <point x="444" y="82"/>
      <point x="444" y="187" type="curve"/>
      <point x="444" y="283"/>
      <point x="385" y="361"/>
      <point x="279" y="361" type="curve" smooth="yes"/>
      <point x="243" y="361"/>
      <point x="210" y="351"/>
      <point x="181" y="333" type="curve"/>
      <point x="157" y="361" type="line"/>
      <point x="139" y="228" type="line"/>
      <point x="172" y="254"/>
      <point x="206" y="268"/>
      <point x="240" y="268" type="curve" smooth="yes"/>
      <point x="295" y="268"/>
      <point x="324" y="234"/>
      <point x="324" y="171" type="curve"/>
      <point x="324" y="110"/>
      <point x="293" y="77"/>
      <point x="240" y="77" type="curve"/>
      <point x="173" y="77"/>
      <point x="151" y="126"/>
      <point x="151" y="217" type="curve"/>
      <point x="151" y="374"/>
      <point x="218" y="449"/>
      <point x="417" y="524" type="curve"/>
      <point x="417" y="537" type="line"/>
      <point x="325" y="596" type="line"/>
    </contour>
  </outline>
</glyph>
<glyph name="t.sups" format="1">
  <advance width="232"/>
  <outline>
    <contour>
      <point x="53" y="708" type="line"/>
      <point x="53" y="483" type="line"/>
      <point x="51" y="413" type="line" smooth="yes"/>
      <point x="50" y="360"/>
      <point x="87" y="327"/>
      <point x="151" y="327" type="curve"/>
      <point x="172" y="329"/>
      <point x="197" y="339"/>
      <point x="217" y="349" type="curve"/>
      <point x="226" y="406" type="line"/>
      <point x="219" y="414" type="line"/>
      <point x="207" y="409"/>
      <point x="193" y="406"/>
      <point x="183" y="406" type="curve" smooth="yes"/>
      <point x="158" y="406"/>
      <point x="148" y="421"/>
      <point x="148" y="452" type="curve"/>
      <point x="155" y="723" type="line"/>
      <point x="148" y="729" type="line"/>
    </contour>
    <contour>
      <point x="12" y="642" type="line"/>
      <point x="8" y="587" type="line"/>
      <point x="11" y="581" type="line"/>
      <point x="221" y="581" type="line"/>
      <point x="226" y="637" type="line"/>
      <point x="224" y="642" type="line"/>
    </contour>
    <contour>
      <point x="134" y="0" type="move" name="bottom"/>
    </contour>
    <contour>
      <point x="126" y="157" type="move" name="center"/>
    </contour>
  </outline>
</glyph>
<glyph name="three.dnom" format="1">
  <advance width="321"/>
  <outline>
    <contour>
      <point x="107" y="391"/>
      <point x="61" y="378"/>
      <point x="22" y="354" type="curve"/>
      <point x="39" y="284" type="line"/>
      <point x="50" y="284" type="line"/>
      <point x="79" y="300"/>
      <point x="104" y="309"/>
      <point x="128" y="309" type="curve" smooth="yes"/>
      <point x="155" y="309"/>
      <point x="170" y="299"/>
      <point x="170" y="278" type="curve" smooth="yes"/>
      <point x="170" y="250"/>
      <point x="141" y="232"/>
      <point x="111" y="231" type="curve" smooth="yes"/>
      <point x="79" y="230" type="line"/>
      <point x="78" y="161" type="line"/>
      <point x="83" y="154" type="line"/>
      <point x="135" y="154" type="line"/>
      <point x="168" y="154"/>
      <point x="185" y="140"/>
      <point x="185" y="116" type="curve" smooth="yes"/>
      <point x="185" y="88"/>
      <point x="159" y="72"/>
      <point x="112" y="72" type="curve" smooth="yes"/>
      <point x="88" y="72"/>
      <point x="63" y="75"/>
      <point x="35" y="83" type="curve"/>
      <point x="27" y="76" type="line"/>
      <point x="34" y="2" type="line"/>
      <point x="57" y="-3"/>
      <point x="86" y="-6"/>
      <point x="110" y="-6" type="curve" smooth="yes"/>
      <point x="217" y="-6"/>
      <point x="288" y="42"/>
      <point x="288" y="113" type="curve" smooth="yes"/>
      <point x="288" y="159"/>
      <point x="265" y="189"/>
      <point x="217" y="203" type="curve"/>
      <point x="217" y="207" type="line"/>
      <point x="263" y="231"/>
      <point x="278" y="268"/>
      <point x="278" y="298" type="curve" smooth="yes"/>
      <point x="278" y="354"/>
      <point x="227" y="391"/>
      <point x="151" y="391" type="curve" smooth="yes"/>
    </contour>
  </outline>
</glyph>
<glyph name="tilde.i" format="1">
  <advance width="389"/>
  <outline>
    <contour>
      <point x="298" y="698" type="line"/>
      <point x="277" y="672"/>
      <point x="263" y="648"/>
      <point x="243" y="648" type="curve" smooth="yes"/>
      <point x="222" y="648"/>
      <point x="156" y="676"/>
      <point x="115" y="682" type="curve"/>
      <point x="103" y="677" type="line"/>
      <point x="40" y="590" type="line"/>
      <point x="40" y="578" type="line"/>
      <point x="79" y="539" type="line"/>
      <point x="91" y="539" type="line"/>
      <point x="111" y="565"/>
      <point x="126" y="589"/>
      <point x="145" y="589" type="curve" smooth="yes"/>
      <point x="166" y="589"/>
      <point x="232" y="561"/>
      <point x="274" y="555" type="curve"/>
      <point x="285" y="559" type="line"/>
      <point x="348" y="648" type="line"/>
      <point x="348" y="659" type="line"/>
      <point x="309" y="698" type="line"/>
    </contour>
    <contour>
      <point x="194" y="465" type="move" name="_top"/>
    </contour>
  </outline>
</glyph>
<glyph name="two.sinf" format="1">
  <advance width="361"/>
  <outline>
    <contour>
      <point x="133" y="270"/>
      <point x="82" y="251"/>
      <point x="33" y="218" type="curve"/>
      <point x="51" y="139" type="line"/>
      <point x="63" y="139" type="line"/>
      <point x="92" y="167"/>
      <point x="129" y="185"/>
      <point x="157" y="185" type="curve" smooth="yes"/>
      <point x="184" y="185"/>
      <point x="197" y="170"/>
      <point x="197" y="152" type="curve" smooth="yes"/>
      <point x="197" y="125"/>
      <point x="169" y="94"/>
      <point x="127" y="46" type="curve" smooth="yes"/>
      <point x="33" y="-56" type="line"/>
      <point x="33" y="-118" type="line"/>
      <point x="38" y="-121" type="line"/>
      <point x="65" y="-120" type="line"/>
      <point x="232" y="-120" type="line"/>
      <point x="325" y="-124" type="line"/>
      <point x="337" y="-42" type="line"/>
      <point x="332" y="-35" type="line"/>
      <point x="265" y="-39" type="line"/>
      <point x="174" y="-39" type="line"/>
      <point x="172" y="-37" type="line"/>
      <point x="223" y="27" type="line" smooth="yes"/>
      <point x="280" y="95"/>
      <point x="304" y="137"/>
      <point x="304" y="176" type="curve" smooth="yes"/>
      <point x="304" y="237"/>
      <point x="251" y="270"/>
      <point x="184" y="270" type="curve" smooth="yes"/>
    </contour>
  </outline>
</glyph>
<glyph name="two.tf" format="1">
  <advance width="475"/>
  <outline>
    <contour>
      <point x="171" y="594"/>
      <point x="101" y="563"/>
      <point x="36" y="511" type="curve"/>
      <point x="58" y="407" type="line"/>
      <point x="73" y="407" type="line"/>
      <point x="115" y="453"/>
      <point x="166" y="481"/>
      <point x="208" y="481" type="curve" smooth="yes"/>
      <point x="249" y="481"/>
      <point x="271" y="455"/>
      <point x="271" y="423" type="curve" smooth="yes"/>
      <point x="271" y="379"/>
      <point x="230" y="327"/>
      <point x="170" y="250" type="curve" smooth="yes"/>
      <point x="35" y="85" type="line"/>
      <point x="35" y="3" type="line"/>
      <point x="42" y="-2" type="line"/>
      <point x="80.0064" y="0" type="line"/>
      <point x="315" y="0" type="line"/>
      <point x="439" y="-6" type="line"/>
      <point x="454" y="101" type="line"/>
      <point x="447" y="112" type="line"/>
      <point x="353" y="105" type="line"/>
      <point x="208" y="105" type="line"/>
      <point x="206" y="109" type="line"/>
      <point x="288" y="223" type="line" smooth="yes"/>
      <point x="366" y="327"/>
      <point x="402" y="394"/>
      <point x="402" y="455" type="curve" smooth="yes"/>
      <point x="402" y="542"/>
      <point x="332" y="594"/>
      <point x="241" y="594" type="curve" smooth="yes"/>
    </contour>
  </outline>
</glyph>
<glyph name="up" format="1">
  <advance width="421"/>
  <outline>
    <contour>
      <point x="62" y="102" type="line"/>
      <point x="358" y="102" type="line"/>
      <point x="210" y="399" type="line"/>
    </contour>
  </outline>
</glyph>
<glyph name="v.sups" format="1">
  <advance width="303"/>
  <outline>
    <contour>
      <point x="9" y="643" type="line"/>
      <point x="95" y="330" type="line"/>
      <point x="207" y="330" type="line"/>
      <point x="307" y="645" type="line"/>
      <point x="218" y="645" type="line"/>
      <point x="206" y="585" type="line"/>
      <point x="159" y="428" type="line"/>
      <point x="153" y="428" type="line"/>
      <point x="114" y="591" type="line"/>
      <point x="106" y="647" type="line"/>
    </contour>
  </outline>
</glyph>
<glyph name="w.sups" format="1">
  <advance width="479"/>
  <outline>
    <contour>
      <point x="9" y="643" type="line"/>
      <point x="89" y="330" type="line"/>
      <point x="192" y="330" type="line"/>
      <point x="240" y="515" type="line"/>
      <point x="248" y="515" type="line"/>
      <point x="289" y="330" type="line"/>
      <point x="388" y="330" type="line"/>
      <point x="483" y="645" type="line"/>
      <point x="396" y="645" type="line"/>
      <point x="384" y="588" type="line"/>
      <point x="347" y="437" type="line"/>
      <point x="341" y="437" type="line"/>
      <point x="308" y="594" type="line"/>
      <point x="301" y="645" type="line"/>
      <point x="199" y="645" type="line"/>
      <point x="188" y="588" type="line"/>
      <point x="149" y="435" type="line"/>
      <point x="144" y="435" type="line"/>
      <point x="111" y="594" type="line"/>
      <point x="104" y="647" type="line"/>
    </contour>
    <contour>
      <point x="253" y="313" type="move" name="top"/>
    </contour>
  </outline>
</glyph>
<glyph name="z.sups" format="1">
  <advance width="300"/>
  <outline>
    <contour>
      <point x="21" y="586" type="line"/>
      <point x="27" y="578" type="line"/>
      <point x="82" y="582" type="line"/>
      <point x="165" y="582" type="line"/>
      <point x="21" y="389" type="line"/>
      <point x="21" y="328" type="line"/>
      <point x="69" y="330" type="line"/>
      <point x="191" y="330" type="line"/>
      <point x="273" y="329" type="line"/>
      <point x="280" y="391" type="line"/>
      <point x="274" y="398" type="line"/>
      <point x="218" y="394" type="line"/>
      <point x="131" y="394" type="line"/>
      <point x="274" y="584" type="line"/>
      <point x="273" y="646" type="line"/>
      <point x="235" y="645" type="line"/>
      <point x="97" y="645" type="line"/>
      <point x="28" y="646" type="line"/>
    </contour>
    <contour>
      <point x="155" y="313" type="move" name="top"/>
    </contour>
  </outline>
</glyph>
<glyph name="zero.lf" format="1">
  <advance width="521"/>
  <outline>
    <contour>
      <point x="122" y="594"/>
      <point x="40" y="483"/>
      <point x="40" y="284" type="curve" smooth="yes"/>
      <point x="40" y="95"/>
      <point x="116" y="-9"/>
      <point x="253" y="-9" type="curve" smooth="yes"/>
      <point x="400" y="-9"/>
      <point x="481" y="102"/>
      <point x="481" y="301" type="curve" smooth="yes"/>
      <point x="481" y="489"/>
      <point x="405" y="594"/>
      <point x="269" y="594" type="curve" smooth="yes"/>
    </contour>
    <contour>
      <point x="338" y="469"/>
      <point x="377" y="409"/>
      <point x="377" y="286" type="curve" smooth="yes"/>
      <point x="377" y="167"/>
      <point x="339" y="108"/>
      <point x="260" y="108" type="curve" smooth="yes"/>
      <point x="180" y="108"/>
      <point x="143" y="169"/>
      <point x="143" y="293" type="curve" smooth="yes"/>
      <point x="143" y="411"/>
      <point x="180" y="469"/>
      <point x="258" y="469" type="curve" smooth="yes"/>
    </contour>
  </outline>
</glyph>
